<?xml version="1.0" encoding="utf-8"?>
<!-- Generator: Adobe Illustrator 16.0.0, SVG Export Plug-In . SVG Version: 6.00 Build 0)  -->
<!DOCTYPE svg PUBLIC "-//W3C//DTD SVG 1.1//EN" "http://www.w3.org/Graphics/SVG/1.1/DTD/svg11.dtd">
<svg version="1.1" id="Layer_1" xmlns="http://www.w3.org/2000/svg" xmlns:xlink="http://www.w3.org/1999/xlink" x="0px" y="0px"
	 width="612px" height="792px" viewBox="0 0 612 792" enable-background="new 0 0 612 792" xml:space="preserve">
<g>
	<path d="M310.418,121.715h-14.082c-7.524,0-13.621-6.102-13.621-13.621v-0.461c0-17.469-14.164-31.633-31.637-31.633h-0.73
		c-17.473,0-31.633,14.164-31.633,31.633v0.457c0,7.523-6.102,13.625-13.625,13.625h-14.078c-14.996,0-27.157,12.156-27.157,27.152
		v0.551c0,14.996,12.161,27.152,27.157,27.152h119.406c14.996,0,27.152-12.156,27.152-27.152v-0.551
		C337.57,133.871,325.414,121.715,310.418,121.715L310.418,121.715z"/>
	<path d="M250.715,121.715c-7.574,0-13.715-6.141-13.715-13.715s6.141-13.715,13.715-13.715c7.574,0,13.715,6.141,13.715,13.715
		S258.289,121.715,250.715,121.715L250.715,121.715z"/>
	<path d="M311.77,652H81.57C61.371,652,45,635.625,45,615.43V176.57C45,156.375,61.371,140,72.43,140h74.093
		c-0.617,3.039-0.953,6.184-0.953,9.422c0,25.051,20.387,45.437,45.442,45.437h119.402c25.059,0,45.441-20.386,45.441-45.992
		c0-3.035-0.324-5.996-0.895-8.867h55.754c29.34,0,45.715,16.375,45.715,36.57v274.75c-3.039-0.188-6.059-0.465-9.145-0.465
		c-12.648,0-24.859,1.785-36.57,4.816V240.57h-320v365.715h210.746C302.465,622.355,305.977,637.738,311.77,652L311.77,652z"/>
	<path d="M447.285,478.285c-65.645,0-118.855,53.215-118.855,118.855C328.43,662.785,381.641,716,447.285,716
		s118.855-53.215,118.855-118.855C566.141,531.5,512.93,478.285,447.285,478.285L447.285,478.285z"/>
	<path fill="#FFFFFF" d="M524.949,572.723l-73.141,82.285c-3.605,4.054-8.621,6.133-13.676,6.133c-4.012,0-8.047-1.313-11.414-4.008
		l-45.715-36.571c-7.883-6.304-9.164-17.812-2.852-25.694c6.301-7.895,17.816-9.172,25.699-2.859l32.156,25.723l61.613-69.313
		c6.699-7.543,18.262-8.23,25.813-1.516C530.98,553.617,531.66,565.168,524.949,572.723L524.949,572.723z"/>
	<path d="M365,396H218.715c-5.051,0-9.145-4.094-9.145-9.145v-9.14c0-5.051,4.094-9.145,9.145-9.145H365
		c5.051,0,9.145,4.094,9.145,9.145v9.14C374.141,391.906,370.051,396,365,396L365,396z"/>
	<path d="M319.285,469.145h-100.57c-5.051,0-9.145-4.094-9.145-9.145v-9.145c0-5.047,4.094-9.141,9.145-9.141h100.57
		c5.051,0,9.145,4.094,9.145,9.141V460C328.43,465.051,324.336,469.145,319.285,469.145L319.285,469.145z"/>
	<path d="M301,551.43h-82.285c-5.051,0-9.145-4.094-9.145-9.145v-9.145c0-5.047,4.094-9.141,9.145-9.141H301
		c5.051,0,9.145,4.094,9.145,9.141v9.145C310.141,547.336,306.051,551.43,301,551.43L301,551.43z"/>
	<path d="M192.066,279.902l-33.671,37.879c-1.661,1.867-3.969,2.824-6.297,2.824c-1.848,0-3.703-0.601-5.254-1.843l-21.043-16.836
		c-3.633-2.903-4.223-8.199-1.317-11.828c2.903-3.637,8.204-4.223,11.832-1.317l14.805,11.84l28.363-31.906
		c3.086-3.477,8.407-3.789,11.883-0.699C194.844,271.105,195.156,276.426,192.066,279.902L192.066,279.902z"/>
	<path d="M192.066,361.246l-33.671,37.883c-1.661,1.863-3.969,2.824-6.297,2.824c-1.848,0-3.703-0.605-5.254-1.848l-21.043-16.835
		c-3.633-2.903-4.223-8.2-1.317-11.829c2.903-3.636,8.204-4.222,11.832-1.316l14.805,11.84l28.363-31.906
		c3.086-3.473,8.407-3.789,11.883-0.7C194.844,352.449,195.156,357.77,192.066,361.246L192.066,361.246z"/>
	<path d="M192.066,439.039l-33.671,37.883c-1.661,1.863-3.969,2.82-6.297,2.82c-1.848,0-3.703-0.602-5.254-1.844l-21.043-16.837
		c-3.633-2.901-4.223-8.198-1.317-11.827c2.903-3.637,8.204-4.223,11.832-1.316l14.805,11.84l28.363-31.906
		c3.086-3.477,8.407-3.789,11.883-0.699C194.844,430.242,195.156,435.563,192.066,439.039L192.066,439.039z"/>
	<path d="M192.066,517.379l-33.671,37.883c-1.661,1.867-3.969,2.824-6.297,2.824c-1.848,0-3.703-0.605-5.254-1.848l-21.043-16.836
		c-3.633-2.898-4.223-8.199-1.317-11.828c2.903-3.633,8.204-4.223,11.832-1.316l14.805,11.844l28.363-31.91
		c3.086-3.473,8.407-3.789,11.883-0.699C194.844,508.586,195.156,513.902,192.066,517.379L192.066,517.379z"/>
	<path d="M192.066,517.379"/>
	<g>
		<path d="M256.019,283.525h-16.703v13.046h16.703c5.012,0,8.35-2.609,8.35-6.522C264.369,286.135,261.031,283.525,256.019,283.525
			L256.019,283.525z M256.019,283.525"/>
		<path d="M306.085,283.525h-16.699v32.584h16.699c4.974,0,8.311-2.609,8.311-6.522V290.05
			C314.396,286.135,311.059,283.525,306.085,283.525L306.085,283.525z M306.085,283.525"/>
		<path d="M372.818,257.466H230.963c-14.177,0-25.01,8.462-25.01,19.535v45.633c0,11.073,10.833,19.538,25.01,19.538h141.855
			c14.176,0,25.01-8.464,25.01-19.538v-45.633C397.828,265.928,386.994,257.466,372.818,257.466L372.818,257.466z M256.019,303.096
			h-16.703v19.538h-8.353v-45.633h25.056c9.165,0,16.661,5.888,16.661,13.049C272.68,297.208,265.184,303.096,256.019,303.096
			L256.019,303.096z M322.749,309.587c0,7.191-7.496,13.046-16.664,13.046h-25.052v-45.633h25.052
			c9.168,0,16.664,5.888,16.664,13.049V309.587z M372.818,283.525h-33.367v13.046h25.014v6.524h-25.014v19.538h-8.35v-45.633h41.717
			V283.525z M372.818,283.525"/>
	</g>
</g>
</svg>
